<svg version="1.1" id="Layer_1" xmlns="http://www.w3.org/2000/svg" xmlns:xlink="http://www.w3.org/1999/xlink" x="0px" y="0px" width="100%" viewBox="0 0 700 700" enable-background="new 0 0 700 700" xml:space="preserve">

<path fill="#1AB0CF" opacity="1.000000" stroke="none" d="
M512.986694,205.990555 
	C516.553040,206.632156 520.097046,207.528168 523.692017,207.842850 
	C527.196716,208.149628 528.455933,209.510834 528.410889,213.136887 
	C528.229370,227.714722 528.332642,242.296265 528.362427,256.876373 
	C528.366089,258.687622 528.559448,260.498444 528.772217,263.145752 
	C528.860535,294.431885 528.833313,324.881744 528.828857,355.331604 
	C528.827820,362.377899 528.150085,362.819885 520.966797,361.587463 
	C514.769531,360.524200 508.521545,359.717529 502.272705,359.000732 
	C487.784088,357.338837 473.300415,355.589081 458.778351,354.277893 
	C447.222015,353.234467 435.611786,352.787689 423.609253,351.949036 
	C414.728180,351.295044 406.261566,350.291565 397.798859,350.323456 
	C361.001526,350.462250 324.204620,350.845703 287.409637,351.305939 
	C282.841919,351.363098 278.286621,352.410126 273.279480,352.947937 
	C243.932983,355.428223 215.031143,357.943176 186.133331,360.503845 
	C180.629105,360.991608 175.140915,361.660339 169.058777,362.308044 
	C169.058777,358.944031 169.062241,356.647095 169.058243,354.350159 
	C169.005310,323.902008 168.951309,293.453827 168.897583,263.005676 
	C168.972992,246.715973 169.246292,230.423264 168.999512,214.138443 
	C168.928314,209.439743 170.675415,208.279251 174.900681,207.823090 
	C193.380356,205.827972 211.826996,203.526733 231.113846,201.258423 
	C246.363815,200.128662 260.770630,198.737747 275.210663,198.102371 
	C298.798889,197.064499 322.405884,196.043442 346.010315,195.900436 
	C369.291534,195.759369 392.601776,196.240753 415.857971,197.330582 
	C437.921326,198.364532 459.931213,200.540543 481.964600,202.214325 
	C481.964600,202.214340 482.289093,202.385880 482.802917,202.549713 
	C489.869965,203.414291 496.423126,204.115051 502.976318,204.815826 
	C504.285889,204.981583 505.595459,205.147339 507.612122,205.510315 
	C509.875061,205.801865 511.430878,205.896210 512.986694,205.990555 
M368.798706,297.660919 
	C370.435669,297.011261 372.057129,295.851318 373.712372,295.800903 
	C380.636749,295.589996 387.571320,295.711975 394.516296,295.711975 
	C394.516296,282.175812 394.516296,269.465271 394.516296,256.346161 
	C387.302551,256.346161 380.492523,256.118927 373.707336,256.431641 
	C369.654205,256.618408 368.545654,255.183456 368.703857,251.300339 
	C368.985779,244.381454 368.783142,237.442825 368.783142,230.439316 
	C355.180054,230.439316 342.435272,230.439316 329.022705,230.439316 
	C329.022705,239.143188 329.022705,247.537720 329.022705,256.427399 
	C320.106354,256.427399 311.849854,256.427399 303.303619,256.427399 
	C303.303619,269.668060 303.303619,282.392120 303.303619,295.851746 
	C311.959930,295.851746 320.337891,295.851746 329.227264,295.851746 
	C329.227264,304.819000 329.227264,313.059143 329.227264,321.479248 
	C342.638519,321.479248 355.499146,321.479248 368.747406,321.479248 
	C368.747406,313.578979 368.747406,306.107178 368.798706,297.660919 
z" data-index="1" style="visibility: visible; opacity: 1;"></path>
<path fill="#E5E6E8" opacity="1.000000" stroke="none" d="
M273.725555,352.998474 
	C278.286621,352.410126 282.841919,351.363098 287.409637,351.305939 
	C324.204620,350.845703 361.001526,350.462250 397.798859,350.323456 
	C406.261566,350.291565 414.728180,351.295044 423.597321,352.409180 
	C424.064026,370.964294 424.126404,388.932312 424.188782,406.900330 
	C412.148132,412.076691 400.307800,417.813110 387.991302,422.218445 
	C380.653259,424.843109 372.611694,426.290344 364.808807,426.669281 
	C345.782684,427.593323 326.637787,428.224426 308.192780,421.893158 
	C296.523682,417.887726 284.881409,413.765778 274.088593,406.449158 
	C273.742767,388.274292 273.734161,370.636383 273.725555,352.998474 
z" data-index="2" style="opacity: 1;"></path>
<path fill="#E4E6E8" opacity="1.000000" stroke="none" d="
M481.729767,201.871246 
	C459.931213,200.540543 437.921326,198.364532 415.857971,197.330582 
	C392.601776,196.240753 369.291534,195.759369 346.010315,195.900436 
	C322.405884,196.043442 298.798889,197.064499 275.210663,198.102371 
	C260.770630,198.737747 246.363815,200.128662 231.490601,201.093094 
	C236.406647,194.135529 241.240021,186.743393 247.294800,180.544235 
	C253.128464,174.571472 259.930389,169.402161 266.846497,164.668152 
	C274.004242,159.768677 281.457886,154.964981 289.422791,151.666229 
	C299.407928,147.530807 309.877380,144.197281 320.438812,141.903534 
	C338.054352,138.077805 355.787384,137.874283 373.695190,141.573624 
	C391.964844,145.347702 408.651123,152.622238 424.031128,162.656143 
	C437.645111,171.537918 450.693604,181.561554 460.228302,194.996567 
	C464.708191,201.308960 470.970184,199.574768 476.611237,200.953751 
	C478.191498,201.340073 479.864471,201.347122 481.729767,201.871246 
z" data-index="3" style="visibility: visible; opacity: 1;"></path>
<path fill="#3D3E6B" opacity="1.000000" stroke="none" d="
M424.626923,406.940308 
	C424.126404,388.932312 424.064026,370.964294 424.013550,352.536163 
	C435.611786,352.787689 447.222015,353.234467 458.778351,354.277893 
	C473.300415,355.589081 487.784088,357.338837 502.272705,359.000732 
	C508.521545,359.717529 514.769531,360.524200 520.966797,361.587463 
	C528.150085,362.819885 528.827820,362.377899 528.828857,355.331604 
	C528.833313,324.881744 528.860535,294.431885 528.954590,263.522339 
	C539.196899,264.517181 549.364014,265.971710 560.916626,267.624451 
	C560.222412,282.051514 560.396423,296.361359 558.688416,310.442902 
	C554.215637,347.319122 540.339539,380.558350 518.284058,410.500549 
	C515.017517,414.935211 511.767792,415.274048 506.991577,414.790131 
	C479.699158,412.024902 452.377075,409.552307 424.626923,406.940308 
z" data-index="4" style="opacity: 1;"></path>
<path fill="#3D3F6B" opacity="1.000000" stroke="none" d="
M273.279480,352.947937 
	C273.734161,370.636383 273.742767,388.274292 273.720215,406.368134 
	C245.854980,409.495361 217.995056,411.934601 190.207550,415.024902 
	C184.329102,415.678680 181.684204,413.366943 178.635330,409.184692 
	C149.106339,368.678802 135.527222,323.396393 137.451645,273.386688 
	C137.521408,271.573914 137.821442,269.769958 138.058090,267.549835 
	C148.099808,266.027313 158.083969,264.513489 168.482849,263.002686 
	C168.951309,293.453827 169.005310,323.902008 169.058243,354.350159 
	C169.062241,356.647095 169.058777,358.944031 169.058777,362.308044 
	C175.140915,361.660339 180.629105,360.991608 186.133331,360.503845 
	C215.031143,357.943176 243.932983,355.428223 273.279480,352.947937 
z" data-index="5"></path>
<path fill="#484668" opacity="1.000000" stroke="none" d="
M220.752319,474.512909 
	C222.276505,469.064178 226.117401,469.663025 230.297333,470.247559 
	C230.297333,482.616791 230.297333,494.995911 230.297333,507.607117 
	C228.472778,507.607117 226.868179,507.607117 224.640808,507.607117 
	C224.640808,499.185547 224.640808,490.810394 224.640808,482.435242 
	C224.217438,482.323547 223.794083,482.211853 223.370712,482.100159 
	C220.427689,488.089722 217.589584,494.134766 214.470016,500.030914 
	C213.661484,501.559082 212.031219,503.534302 210.669098,503.622864 
	C209.470352,503.700836 207.698181,501.651306 206.908310,500.156158 
	C203.685043,494.054871 200.741547,487.805786 196.905762,481.739105 
	C196.905762,490.235779 196.905762,498.732452 196.905762,507.537201 
	C194.839203,507.680878 193.250961,507.791290 191.211487,507.933105 
	C191.211487,495.236359 191.211487,482.858459 191.211487,470.433502 
	C195.995926,468.711212 198.946381,470.293549 200.996475,475.198456 
	C203.675644,481.608490 207.064713,487.721771 210.576035,494.828247 
	C214.148270,487.715210 217.374664,481.290802 220.752319,474.512909 
z" data-index="6"></path>
<path fill="#484769" opacity="1.000000" stroke="none" d="
M330.635712,480.545135 
	C336.002045,495.057556 327.751648,507.424042 312.764893,507.834412 
	C307.837097,507.969391 302.902496,507.855682 297.688477,507.855682 
	C297.688477,495.080139 297.688477,482.860748 297.688477,469.611572 
	C304.829498,470.042084 311.886322,470.083221 318.824951,471.009521 
	C324.203400,471.727570 328.013275,475.320709 330.635712,480.545135 
M319.576721,477.563812 
	C314.497711,476.781799 309.418701,475.999756 304.114258,475.183014 
	C304.114258,484.877655 304.114258,493.249451 304.114258,501.880554 
	C312.029449,501.820984 320.374207,503.863495 324.710205,494.680054 
	C327.641663,488.471375 326.019409,482.880249 319.576721,477.563812 
z" data-index="7" style="opacity: 1;"></path>
<path fill="#474667" opacity="1.000000" stroke="none" d="
M272.517822,491.852783 
	C267.586487,491.854767 263.104797,491.854767 258.251404,491.854767 
	C258.251404,495.158295 258.251404,498.223175 258.251404,501.751038 
	C264.833069,501.751038 271.591797,501.751038 278.694702,501.751038 
	C278.694702,503.904541 278.694702,505.607880 278.694702,507.602417 
	C269.848602,507.602417 261.076935,507.602417 251.876434,507.602417 
	C251.876434,495.241882 251.876434,482.871277 251.876434,470.216492 
	C260.485779,470.216492 269.061432,470.216492 277.898987,470.216492 
	C277.898987,471.961853 277.898987,473.671326 277.898987,475.825806 
	C271.261932,475.825806 264.839996,475.825806 258.148102,475.825806 
	C258.148102,479.322601 258.148102,482.383118 258.148102,485.778076 
	C264.026703,485.778076 269.809906,485.778076 275.939178,485.778076 
	C275.738342,488.488159 278.283264,491.964935 272.517822,491.852783 
z" data-index="8"></path>
<path fill="#474667" opacity="1.000000" stroke="none" d="
M429.479675,501.015259 
	C427.855377,505.388855 426.570740,509.558899 420.197510,507.390839 
	C425.606293,495.015106 431.011169,482.648285 436.342926,470.448730 
	C441.140076,468.920258 443.649200,470.356873 445.492920,475.112823 
	C449.678833,485.910400 454.585175,496.428741 459.288635,507.267944 
	C454.753387,508.662689 451.811676,507.890076 450.799316,503.255463 
	C450.061829,499.879059 447.974365,498.749023 444.611694,499.164948 
	C439.652893,499.778259 434.665070,500.156860 429.479675,501.015259 
M442.749634,483.819733 
	C441.777252,481.724548 440.804871,479.629333 439.501282,476.820587 
	C437.033264,482.851776 434.945831,487.952850 432.778564,493.249054 
	C437.640350,493.249054 441.797638,493.249054 446.517395,493.249054 
	C445.203308,489.966370 444.114716,487.247040 442.749634,483.819733 
z" data-index="9" style="opacity: 1; visibility: visible;"></path>
<path fill="#484667" opacity="1.000000" stroke="none" d="
M397.265930,476.025848 
	C387.919617,474.872131 382.088623,478.619080 380.433319,486.495605 
	C379.094543,492.865936 383.266296,499.511688 389.855713,501.505768 
	C394.152313,502.805969 398.191895,501.810333 404.177490,497.813141 
	C405.293182,498.991486 406.463409,500.227417 407.611267,501.439728 
	C399.937103,509.953644 387.630219,510.228302 379.421082,502.375000 
	C371.982117,495.258423 371.897705,482.753754 379.188751,475.449982 
	C386.979858,467.645355 401.577332,468.124939 407.527191,475.848633 
	C406.614471,477.094452 405.653870,478.405670 404.570343,479.884644 
	C402.195801,478.584076 399.936096,477.346375 397.265930,476.025848 
z" data-index="10" style="opacity: 1;"></path>
<path fill="#4F4D6F" opacity="1.000000" stroke="none" d="
M475.859253,507.217346 
	C475.598053,494.718903 475.598053,482.586243 475.598053,470.193665 
	C477.616608,470.193665 479.384918,470.193665 481.713623,470.193665 
	C481.713623,480.591980 481.713623,490.987335 481.713623,501.848572 
	C487.340393,501.848572 492.432465,501.848572 497.844055,501.848572 
	C497.938538,503.898010 498.011871,505.488922 498.108429,507.583160 
	C490.586609,507.583160 483.353516,507.583160 475.859253,507.217346 
z" data-index="11" style="visibility: visible; opacity: 1;"></path>

<path fill="#E3F8FA" opacity="1.000000" stroke="none" d="
M299.805603,523.093018 
	C304.420105,521.873718 308.850128,518.757019 313.884186,521.767212 
	C314.243378,521.981995 314.854462,521.820740 315.341431,521.768982 
	C317.643738,521.524170 321.820374,520.664246 321.954376,521.088806 
	C323.311798,525.389160 324.222900,529.877319 324.654297,534.370911 
	C324.717255,535.026550 321.620148,536.634644 319.963074,536.667053 
	C316.807190,536.728821 313.635254,535.971130 310.233063,534.850342 
	C310.246796,531.502686 310.497498,528.858337 310.797363,526.501831 
	C311.141266,527.274109 311.436005,527.758667 311.773071,528.551636 
	C312.252777,529.443909 312.690155,530.027771 313.127533,530.611633 
	C313.356232,530.443176 313.584961,530.274780 313.813690,530.106323 
	C313.330536,529.304810 312.847412,528.503296 312.284302,527.425476 
	C311.905518,526.671204 311.606689,526.193298 311.241028,525.337891 
	C310.567963,524.340515 309.961761,523.720459 309.355530,523.100464 
	C308.924622,523.836792 308.182495,524.547668 308.119720,525.314209 
	C307.910187,527.870911 307.944214,530.447449 307.884918,533.016418 
	C307.372223,530.963074 306.859528,528.909729 306.253479,526.482605 
	C303.840118,528.817932 299.598785,523.019531 296.991455,528.575195 
	C295.973480,527.147034 295.502502,525.690857 295.399445,524.182312 
	C297.113464,523.784302 298.459534,523.438660 299.805603,523.093018 
z" data-index="13" style="visibility: hidden; opacity: 1;"></path>
<path fill="#423F60" opacity="1.000000" stroke="none" d="
M356.049072,506.563629 
	C354.246368,507.377258 352.550598,507.743073 350.367065,508.214081 
	C350.367065,495.329132 350.367065,482.999481 350.367065,470.317139 
	C352.056732,470.317139 353.908539,470.317139 356.156036,470.317139 
	C356.156036,482.324829 356.156036,494.220306 356.049072,506.563629 
z" data-index="14" style="opacity: 1;"></path>

<path fill="#F2FAFB" opacity="1.000000" stroke="none" d="
M290.131226,533.282227 
	C288.570709,533.828125 286.999390,534.345398 285.453400,534.929749 
	C284.371704,535.338562 283.324677,535.839172 282.070007,535.675659 
	C281.260162,533.379333 280.642456,531.706177 280.014099,530.019409 
	C280.003479,530.005859 280.023376,530.027771 280.337708,530.116943 
	C281.131012,529.811035 281.610016,529.415894 282.388245,528.960999 
	C281.791229,526.599976 280.895020,524.298767 279.998779,521.997559 
	C283.361084,521.664124 286.723358,521.330688 290.416565,521.289856 
	C290.761963,522.708923 290.776489,523.835388 290.835693,525.345215 
	C290.855438,526.497681 290.830536,527.266907 290.579193,528.283813 
	C290.305237,529.194458 290.257690,529.857422 290.382782,530.771667 
	C290.414062,531.776001 290.272644,532.529114 290.131226,533.282227 
z" data-index="16" style="visibility: hidden; opacity: 1;"></path>

<path fill="#91B5BC" opacity="1.000000" stroke="none" d="
M408.904419,524.148315 
	C409.677490,525.515991 410.450592,526.883667 411.393494,528.551758 
	C414.077942,526.323059 416.329895,524.453430 418.801636,523.250732 
	C418.968414,527.588257 418.915375,531.258911 418.862335,534.929565 
	C417.401794,534.355652 415.941254,533.781738 414.105713,533.060486 
	C414.028961,533.117798 413.339508,533.632507 412.080933,533.938599 
	C409.635590,530.132263 407.759369,526.534668 405.883118,522.937073 
	C405.883118,522.937073 405.942749,522.932800 406.269135,522.925293 
	C407.365143,523.328003 408.134796,523.738159 408.904419,524.148315 
z" data-index="18" style="visibility: hidden; opacity: 1;"></path>

<path fill="#D6F2F5" opacity="1.000000" stroke="none" d="
M405.526306,523.030273 
	C407.759369,526.534668 409.635590,530.132263 411.759613,533.987854 
	C409.945007,534.762939 407.126617,536.344177 406.000092,535.543945 
	C404.371216,534.386780 403.359650,531.543213 403.220001,529.346863 
	C403.091248,527.321899 404.460205,525.201782 405.526306,523.030273 
z" data-index="20" style="visibility: hidden; opacity: 1;"></path>

<path fill="#91B5BC" opacity="1.000000" stroke="none" d="
M272.149048,535.189575 
	C271.984009,531.266479 271.984009,527.534302 271.984009,523.802124 
	C272.389435,523.735291 272.794861,523.668457 273.200317,523.601624 
	C273.471405,525.125610 273.742493,526.649597 274.244476,528.913269 
	C276.325165,529.779602 278.174957,529.906250 280.024750,530.032959 
	C280.642456,531.706177 281.260162,533.379333 281.885315,535.382812 
	C281.497223,535.743103 281.101715,535.773010 280.330231,535.455322 
	C278.524841,534.075806 277.095398,533.044006 275.665985,532.012207 
	C275.017365,533.282837 274.368744,534.553467 273.720093,535.824097 
	C273.251404,535.676208 272.782745,535.528320 272.149048,535.189575 
z" data-index="22" style="opacity: 1; visibility: hidden;"></path>

<path fill="#E3F8FA" opacity="1.000000" stroke="none" d="
M351.970947,535.161865 
	C351.763947,535.795227 351.556976,536.428589 351.349976,537.061951 
	C350.816986,536.760620 350.283966,536.459290 349.750977,536.157959 
	C350.171478,530.709534 350.592010,525.261108 351.069763,519.070679 
	C353.682648,520.214417 355.762451,521.124756 357.501801,522.454224 
	C355.584259,522.976685 354.007111,523.080078 351.970978,523.213562 
	C351.970978,527.414246 351.970978,531.288086 351.970947,535.161865 
z" data-index="24" style="visibility: hidden; opacity: 1;"></path>

<path fill="#7EA5A8" opacity="1.000000" stroke="none" d="
M290.805603,528.036133 
	C290.830536,527.266907 290.855438,526.497681 290.948120,524.950073 
	C293.028259,523.654541 295.040710,523.137451 297.053162,522.620361 
	C297.742126,522.737732 298.431091,522.855103 299.462830,523.032715 
	C298.459534,523.438660 297.113464,523.784302 295.037720,524.132019 
	C293.705261,525.268860 292.916626,526.349121 292.562714,527.556763 
	C292.312500,528.410583 292.943604,529.530823 292.674500,530.369568 
	C291.671082,533.497131 293.307007,534.121216 295.861786,534.051697 
	C294.049347,534.555481 292.236908,535.059265 290.040161,535.462769 
	C289.655853,535.362549 289.579926,535.109375 289.579926,535.109375 
	C289.685425,534.699646 289.790955,534.289978 290.013855,533.581238 
	C290.272644,532.529114 290.414062,531.776001 290.630554,530.533142 
	C290.738983,529.374329 290.772278,528.705200 290.805603,528.036133 
z" data-index="26" style="visibility: hidden; opacity: 1;"></path>

<path fill="#D6F2F5" opacity="1.000000" stroke="none" d="
M295.925476,534.060913 
	C293.307007,534.121216 291.671082,533.497131 292.674500,530.369568 
	C292.943604,529.530823 292.312500,528.410583 292.562714,527.556763 
	C292.916626,526.349121 293.705261,525.268860 294.669800,524.184448 
	C295.502502,525.690857 295.973480,527.147034 296.713135,528.799316 
	C296.983459,529.164673 296.985107,529.333862 296.848785,530.077148 
	C296.510223,531.775269 296.309631,532.899292 296.109070,534.023254 
	C296.109070,534.023254 295.989166,534.070190 295.925476,534.060913 
z" data-index="28" style="visibility: hidden; opacity: 1;"></path>

<path fill="#91B5BC" opacity="1.000000" stroke="none" d="
M310.748199,526.214050 
	C310.497498,528.858337 310.246796,531.502686 309.998718,534.578369 
	C309.338470,534.571411 308.675659,534.132996 307.948883,533.355469 
	C307.944214,530.447449 307.910187,527.870911 308.119720,525.314209 
	C308.182495,524.547668 308.924622,523.836792 309.355530,523.100464 
	C309.961761,523.720459 310.567963,524.340515 311.101562,525.465210 
	C311.028961,525.969849 310.748199,526.214050 310.748199,526.214050 
z" data-index="30" style="visibility: hidden; opacity: 1;"></path>

<path fill="#E4E6E8" opacity="1.000000" stroke="none" d="
M502.702942,204.563644 
	C496.423126,204.115051 489.869965,203.414291 482.972198,202.478760 
	C489.228271,202.933136 495.828918,203.622299 502.702942,204.563644 
z" data-index="32" style="visibility: visible;"></path>

<path fill="#E3F8FA" opacity="1.000000" stroke="none" d="
M296.473999,534.006104 
	C296.309631,532.899292 296.510223,531.775269 296.850098,530.330933 
	C297.630737,530.781067 298.272125,531.551636 298.913513,532.322205 
	C298.222015,532.877808 297.530487,533.433411 296.473999,534.006104 
z" data-index="34" style="visibility: visible;"></path>
<path fill="#E4E6E8" opacity="1.000000" stroke="none" d="
M512.932129,205.641678 
	C511.430878,205.896210 509.875061,205.801865 508.007202,205.471588 
	C509.422638,205.254700 511.150116,205.273743 512.932129,205.641678 
z" data-index="35" style="visibility: visible;"></path>
<path fill="#D6F2F5" opacity="1.000000" stroke="none" d="
M408.930389,523.779053 
	C408.134796,523.738159 407.365143,523.328003 406.263550,522.895996 
	C406.530853,522.313110 407.130188,521.752136 407.729492,521.191162 
	C408.138458,521.930725 408.547424,522.670288 408.930389,523.779053 
z" data-index="36"></path>
<path fill="#F2FAFB" opacity="1.000000" stroke="none" d="
M289.317810,535.124878 
	C289.579926,535.109375 289.655853,535.362549 289.676208,535.489197 
	C289.482910,535.457397 289.269318,535.298889 289.317810,535.124878 
z" data-index="37"></path>
<path fill="#F7FDFE" opacity="1.000000" stroke="none" d="
M368.773071,298.148132 
	C368.747406,306.107178 368.747406,313.578979 368.747406,321.479248 
	C355.499146,321.479248 342.638519,321.479248 329.227264,321.479248 
	C329.227264,313.059143 329.227264,304.819000 329.227264,295.851746 
	C320.337891,295.851746 311.959930,295.851746 303.303619,295.851746 
	C303.303619,282.392120 303.303619,269.668060 303.303619,256.427399 
	C311.849854,256.427399 320.106354,256.427399 329.022705,256.427399 
	C329.022705,247.537720 329.022705,239.143188 329.022705,230.439316 
	C342.435272,230.439316 355.180054,230.439316 368.783142,230.439316 
	C368.783142,237.442825 368.985779,244.381454 368.703857,251.300339 
	C368.545654,255.183456 369.654205,256.618408 373.707336,256.431641 
	C380.492523,256.118927 387.302551,256.346161 394.516296,256.346161 
	C394.516296,269.465271 394.516296,282.175812 394.516296,295.711975 
	C387.571320,295.711975 380.636749,295.589996 373.712372,295.800903 
	C372.057129,295.851318 370.435669,297.011261 368.773071,298.148132 
z" data-index="38" style="opacity: 1;"></path>

<path fill="#EAEAEF" opacity="1.000000" stroke="none" d="
M442.887878,484.173706 
	C444.114716,487.247040 445.203308,489.966370 446.517395,493.249054 
	C441.797638,493.249054 437.640350,493.249054 432.778564,493.249054 
	C434.945831,487.952850 437.033264,482.851776 439.501282,476.820587 
	C440.804871,479.629333 441.777252,481.724548 442.887878,484.173706 
z" data-index="40" style="opacity: 1; visibility: hidden;"></path>

<path fill="#91B5BC" opacity="1.000000" stroke="none" d="
M312.364258,527.701782 
	C312.847412,528.503296 313.330536,529.304810 313.813690,530.106323 
	C313.584961,530.274780 313.356232,530.443176 313.127533,530.611633 
	C312.690155,530.027771 312.252777,529.443909 311.929504,528.413940 
	C312.043610,527.967896 312.364258,527.701782 312.364258,527.701782 
z" data-index="42" style="visibility: hidden; opacity: 1;"></path>

<path fill="#D6F2F5" opacity="1.000000" stroke="none" d="
M358.320679,530.006775 
	C353.286652,530.749695 352.456635,528.556580 354.454590,524.076233 
	C355.932617,524.076233 357.548645,524.076233 359.586487,524.045166 
	C360.008301,524.014099 359.975311,523.996765 359.920227,524.399658 
	C359.904205,526.212463 359.943268,527.622498 359.982330,529.032471 
	C359.982330,529.032471 359.980743,528.982117 359.713470,529.097229 
	C359.126648,529.487671 358.807068,529.762939 358.487518,530.038269 
	C358.487518,530.038269 358.371033,530.036072 358.320679,530.006775 
z" data-index="44" style="visibility: hidden; opacity: 1;"></path>
<path fill="#7EA5A8" opacity="1.000000" stroke="none" d="
M360.324585,529.012085 
	C359.943268,527.622498 359.904205,526.212463 359.925018,524.381104 
	C360.212219,525.637085 360.439514,527.314392 360.324585,529.012085 
z" data-index="45"></path>
<path fill="#7EA5A8" opacity="1.000000" stroke="none" d="
M358.854004,530.046143 
	C358.807068,529.762939 359.126648,529.487671 359.738403,529.093506 
	C359.760590,529.334473 359.490570,529.694214 358.854004,530.046143 
z" data-index="46"></path>
<path fill="#91B5BC" opacity="1.000000" stroke="none" d="
M280.337708,530.116943 
	C280.579102,529.548584 281.134827,529.069336 281.889771,528.805481 
	C281.610016,529.415894 281.131012,529.811035 280.337708,530.116943 
z" data-index="47"></path>
<path fill="#E3F8FA" opacity="1.000000" stroke="none" d="
M290.579193,528.283813 
	C290.772278,528.705200 290.738983,529.374329 290.457886,530.281921 
	C290.257690,529.857422 290.305237,529.194458 290.579193,528.283813 
z" data-index="48"></path>
<path fill="#D6F2F5" opacity="1.000000" stroke="none" d="
M275.535461,522.554077 
	C275.473541,522.592285 275.597412,522.515930 275.535461,522.554077 
z" data-index="49"></path>

</svg>